# Blender v2.79 (sub 0) OBJ File: ''
# www.blender.org
mtllib plane.mtl
o plane
v 0.713905 0.400378 0.996288
v 1.211851 -0.704148 -2.022806
v -1.952554 -0.333751 -2.680227
v -2.450500 0.770775 0.338867
vn 0.1743 0.9337 -0.3128
usemtl None
s off
f 1//1 2//1 3//1
f 4//1 1//1 3//1
o cube
v -1.509843 0.474831 -1.566468
v -1.509843 -1.525169 -1.566468
v -1.509843 -1.525169 0.433532
v 0.490157 0.474831 -1.566468
v 0.490157 -1.525169 -1.566468
v 0.490157 0.474831 0.433532
v 0.490157 -1.525169 0.433532
v -1.509843 0.474831 0.433532
vn -1.0000 -0.0000 0.0000
vn 0.0000 0.0000 -1.0000
vn 1.0000 -0.0000 0.0000
vn 0.0000 -0.0000 1.0000
vn 0.0000 -1.0000 0.0000
vn 0.0000 1.0000 0.0000
usemtl None
s off
f 5//2 6//2 7//2
f 8//3 9//3 6//3
f 10//4 11//4 9//4
f 12//5 7//5 11//5
f 6//6 9//6 11//6
f 8//7 5//7 12//7
f 12//2 5//2 7//2
f 5//3 8//3 6//3
f 8//4 10//4 9//4
f 10//5 12//5 11//5
f 7//6 6//6 11//6
f 10//7 8//7 12//7
